<svg xmlns="http://www.w3.org/2000/svg" viewBox="0 0 600 900" width="600" height="900" preserveAspectRatio="xMidYMid slice">
<defs>
<linearGradient id="sky" x1="0" y1="0" x2="0" y2="1"><stop offset="0" stop-color="#050612"/><stop offset="1" stop-color="#1a0f33"/></linearGradient>
<radialGradient id="glow"><stop offset="0" stop-color="#ffd23f" stop-opacity=".55"/><stop offset=".4" stop-color="#ffd23f" stop-opacity=".14"/><stop offset="1" stop-color="#ffd23f" stop-opacity="0"/></radialGradient>
<linearGradient id="fog" x1="0" y1="0" x2="0" y2="1"><stop offset="0" stop-color="#8a5cff" stop-opacity="0"/><stop offset=".5" stop-color="#8a5cff" stop-opacity=".35"/><stop offset="1" stop-color="#8a5cff" stop-opacity="0"/></linearGradient>
<radialGradient id="vig" cx="50%" cy="50%" r="75%"><stop offset=".55" stop-color="#000" stop-opacity="0"/><stop offset="1" stop-color="#000" stop-opacity=".65"/></radialGradient>
<filter id="blur" x="-50%" y="-50%" width="200%" height="200%"><feGaussianBlur stdDeviation="36"/></filter>
<filter id="grain"><feTurbulence type="fractalNoise" baseFrequency=".9" numOctaves="2" seed="12"/><feColorMatrix values="0 0 0 0 .5 0 0 0 0 .5 0 0 0 0 .5 0 0 0 .09 0"/></filter>
</defs>
<rect width="600" height="900" fill="url(#sky)"/>
<circle cx="450" cy="180" r="360" fill="url(#glow)"/><circle cx="450" cy="180" r="54" fill="#ffd23f" opacity=".9"/><g fill="#fff"><circle cx="462.8" cy="168.7" r="0.5" opacity="0.4"/><circle cx="112.4" cy="6.9" r="0.8" opacity="0.7"/><circle cx="246.9" cy="74.1" r="0.9" opacity="0.9"/><circle cx="418.3" cy="196.6" r="0.4" opacity="0.3"/><circle cx="475.8" cy="87.3" r="0.4" opacity="0.4"/><circle cx="583.7" cy="18.6" r="1.1" opacity="1"/><circle cx="157.9" cy="156.4" r="1" opacity="0.2"/><circle cx="187.1" cy="3.3" r="1.5" opacity="0.2"/><circle cx="328" cy="1.1" r="0.6" opacity="0.7"/><circle cx="491.4" cy="260.8" r="0.2" opacity="0.4"/><circle cx="119.1" cy="167.3" r="0.8" opacity="0.9"/><circle cx="275.3" cy="68" r="1.1" opacity="0.5"/><circle cx="244.7" cy="79.3" r="0.3" opacity="0.5"/><circle cx="164.3" cy="93.2" r="0.5" opacity="0.6"/><circle cx="407" cy="251.9" r="0.5" opacity="0.6"/><circle cx="599.7" cy="49.7" r="1.1" opacity="0.2"/><circle cx="584.7" cy="193.7" r="0.8" opacity="1"/><circle cx="24" cy="145.1" r="1.1" opacity="0.6"/><circle cx="550.5" cy="202" r="0.8" opacity="0.4"/><circle cx="143.5" cy="150.9" r="0.8" opacity="0.3"/><circle cx="354.4" cy="230.6" r="0.9" opacity="0.7"/><circle cx="464.7" cy="206.9" r="1.2" opacity="0.4"/><circle cx="457.4" cy="98.8" r="0.4" opacity="0.8"/><circle cx="289.4" cy="1.2" r="1.2" opacity="0.9"/><circle cx="150.7" cy="247.4" r="0.5" opacity="0.6"/><circle cx="557.6" cy="56.3" r="1.3" opacity="0.6"/><circle cx="181.1" cy="91.3" r="0.6" opacity="0.8"/><circle cx="322.5" cy="110.7" r="1.2" opacity="0.6"/><circle cx="543.8" cy="37.8" r="0.9" opacity="0.2"/><circle cx="558.4" cy="78.7" r="1.1" opacity="1"/></g><g fill="#161233"><rect x="-10" y="404.8" width="106.7" height="495.2"/><rect x="98.1" y="453.2" width="51.3" height="446.8"/><rect x="153" y="447.3" width="52.8" height="452.7"/><rect x="210.2" y="390.8" width="44" height="509.2"/><rect x="259.3" y="667.5" width="34.8" height="232.5"/><rect x="296.7" y="525.9" width="84.3" height="374.1"/><rect x="383.6" y="443.6" width="73.6" height="456.4"/><rect x="462.2" y="617.2" width="79.8" height="282.8"/><rect x="547.3" y="532.3" width="114.1" height="367.7"/></g><g fill="#ffd23f" opacity="0.4"></g><rect y="495" width="600" height="405" fill="url(#fog)"/><g fill="#0f0c21"><rect x="-10" y="507.5" width="106.8" height="392.5"/><rect x="100.8" y="722.5" width="72.6" height="177.5"/><rect x="174.9" y="578" width="43.9" height="322"/><rect x="222.2" y="705.7" width="116.3" height="194.3"/><rect x="342.7" y="423" width="116.6" height="477"/><rect x="461.4" y="701.7" width="160.9" height="198.3"/></g><g fill="#ffd23f" opacity="0.65"><rect x="3" y="515.5" width="4.5" height="5.4"/><rect x="30" y="526.3" width="4.5" height="5.4"/><rect x="66" y="526.3" width="4.5" height="5.4"/><rect x="84" y="526.3" width="4.5" height="5.4"/><rect x="66" y="537.1" width="4.5" height="5.4"/><rect x="75" y="537.1" width="4.5" height="5.4"/><rect x="-6" y="547.9" width="4.5" height="5.4"/><rect x="30" y="547.9" width="4.5" height="5.4"/><rect x="57" y="547.9" width="4.5" height="5.4"/><rect x="75" y="547.9" width="4.5" height="5.4"/><rect x="-6" y="558.7" width="4.5" height="5.4"/><rect x="12" y="558.7" width="4.5" height="5.4"/><rect x="21" y="558.7" width="4.5" height="5.4"/><rect x="30" y="558.7" width="4.5" height="5.4"/><rect x="75" y="558.7" width="4.5" height="5.4"/><rect x="12" y="569.5" width="4.5" height="5.4"/><rect x="30" y="569.5" width="4.5" height="5.4"/><rect x="84" y="569.5" width="4.5" height="5.4"/><rect x="48" y="580.3" width="4.5" height="5.4"/><rect x="30" y="591.1" width="4.5" height="5.4"/><rect x="48" y="591.1" width="4.5" height="5.4"/><rect x="3" y="601.9" width="4.5" height="5.4"/><rect x="39" y="601.9" width="4.5" height="5.4"/><rect x="-6" y="612.7" width="4.5" height="5.4"/><rect x="12" y="612.7" width="4.5" height="5.4"/><rect x="30" y="612.7" width="4.5" height="5.4"/><rect x="66" y="612.7" width="4.5" height="5.4"/><rect x="75" y="612.7" width="4.5" height="5.4"/><rect x="3" y="623.5" width="4.5" height="5.4"/><rect x="12" y="623.5" width="4.5" height="5.4"/><rect x="39" y="623.5" width="4.5" height="5.4"/><rect x="3" y="634.3" width="4.5" height="5.4"/><rect x="66" y="655.9" width="4.5" height="5.4"/><rect x="12" y="666.7" width="4.5" height="5.4"/><rect x="21" y="666.7" width="4.5" height="5.4"/><rect x="30" y="666.7" width="4.5" height="5.4"/><rect x="48" y="666.7" width="4.5" height="5.4"/><rect x="12" y="677.5" width="4.5" height="5.4"/><rect x="57" y="677.5" width="4.5" height="5.4"/><rect x="75" y="677.5" width="4.5" height="5.4"/><rect x="84" y="677.5" width="4.5" height="5.4"/><rect x="21" y="688.3" width="4.5" height="5.4"/><rect x="84" y="688.3" width="4.5" height="5.4"/><rect x="-6" y="699.1" width="4.5" height="5.4"/><rect x="21" y="709.9" width="4.5" height="5.4"/><rect x="30" y="709.9" width="4.5" height="5.4"/><rect x="39" y="709.9" width="4.5" height="5.4"/><rect x="75" y="709.9" width="4.5" height="5.4"/><rect x="3" y="720.7" width="4.5" height="5.4"/><rect x="39" y="731.5" width="4.5" height="5.4"/><rect x="66" y="731.5" width="4.5" height="5.4"/><rect x="21" y="742.3" width="4.5" height="5.4"/><rect x="12" y="753.1" width="4.5" height="5.4"/><rect x="30" y="753.1" width="4.5" height="5.4"/><rect x="-6" y="763.9" width="4.5" height="5.4"/><rect x="21" y="763.9" width="4.5" height="5.4"/><rect x="57" y="763.9" width="4.5" height="5.4"/><rect x="57" y="774.7" width="4.5" height="5.4"/><rect x="75" y="774.7" width="4.5" height="5.4"/><rect x="57" y="785.5" width="4.5" height="5.4"/><rect x="66" y="785.5" width="4.5" height="5.4"/><rect x="21" y="796.3" width="4.5" height="5.4"/><rect x="39" y="796.3" width="4.5" height="5.4"/><rect x="75" y="796.3" width="4.5" height="5.4"/><rect x="21" y="807.1" width="4.5" height="5.4"/><rect x="30" y="807.1" width="4.5" height="5.4"/><rect x="39" y="817.9" width="4.5" height="5.4"/><rect x="21" y="828.7" width="4.5" height="5.4"/><rect x="57" y="828.7" width="4.5" height="5.4"/><rect x="66" y="828.7" width="4.5" height="5.4"/><rect x="75" y="839.5" width="4.5" height="5.4"/><rect x="57" y="850.3" width="4.5" height="5.4"/><rect x="84" y="850.3" width="4.5" height="5.4"/><rect x="48" y="861.1" width="4.5" height="5.4"/><rect x="84" y="861.1" width="4.5" height="5.4"/><rect x="75" y="871.9" width="4.5" height="5.4"/><rect x="3" y="882.7" width="4.5" height="5.4"/><rect x="21" y="882.7" width="4.5" height="5.4"/><rect x="3" y="893.5" width="4.5" height="5.4"/><rect x="30" y="893.5" width="4.5" height="5.4"/><rect x="11.4" y="586" width="64.1" height="13.5" fill="#ff2e88"/><rect x="131.8" y="730.5" width="4.5" height="5.4"/><rect x="158.8" y="730.5" width="4.5" height="5.4"/><rect x="104.8" y="741.3" width="4.5" height="5.4"/><rect x="113.8" y="741.3" width="4.5" height="5.4"/><rect x="104.8" y="762.9" width="4.5" height="5.4"/><rect x="140.8" y="762.9" width="4.5" height="5.4"/><rect x="158.8" y="762.9" width="4.5" height="5.4"/><rect x="167.8" y="762.9" width="4.5" height="5.4"/><rect x="104.8" y="773.7" width="4.5" height="5.4"/><rect x="113.8" y="795.3" width="4.5" height="5.4"/><rect x="167.8" y="795.3" width="4.5" height="5.4"/><rect x="140.8" y="816.9" width="4.5" height="5.4"/><rect x="158.8" y="816.9" width="4.5" height="5.4"/><rect x="113.8" y="827.7" width="4.5" height="5.4"/><rect x="140.8" y="827.7" width="4.5" height="5.4"/><rect x="158.8" y="827.7" width="4.5" height="5.4"/><rect x="140.8" y="838.5" width="4.5" height="5.4"/><rect x="167.8" y="838.5" width="4.5" height="5.4"/><rect x="122.8" y="860.1" width="4.5" height="5.4"/><rect x="113.8" y="870.9" width="4.5" height="5.4"/><rect x="104.8" y="881.7" width="4.5" height="5.4"/><rect x="158.8" y="881.7" width="4.5" height="5.4"/><rect x="167.8" y="881.7" width="4.5" height="5.4"/><rect x="158.8" y="892.5" width="4.5" height="5.4"/><rect x="205.9" y="607.6" width="4.5" height="5.4"/><rect x="187.9" y="618.4" width="4.5" height="5.4"/><rect x="205.9" y="618.4" width="4.5" height="5.4"/><rect x="196.9" y="640" width="4.5" height="5.4"/><rect x="187.9" y="650.8" width="4.5" height="5.4"/><rect x="196.9" y="661.6" width="4.5" height="5.4"/><rect x="187.9" y="704.8" width="4.5" height="5.4"/><rect x="178.9" y="715.6" width="4.5" height="5.4"/><rect x="196.9" y="748" width="4.5" height="5.4"/><rect x="187.9" y="758.8" width="4.5" height="5.4"/><rect x="205.9" y="758.8" width="4.5" height="5.4"/><rect x="187.9" y="769.6" width="4.5" height="5.4"/><rect x="205.9" y="769.6" width="4.5" height="5.4"/><rect x="196.9" y="780.4" width="4.5" height="5.4"/><rect x="187.9" y="791.2" width="4.5" height="5.4"/><rect x="178.9" y="802" width="4.5" height="5.4"/><rect x="205.9" y="802" width="4.5" height="5.4"/><rect x="178.9" y="812.8" width="4.5" height="5.4"/><rect x="196.9" y="812.8" width="4.5" height="5.4"/><rect x="205.9" y="823.6" width="4.5" height="5.4"/><rect x="178.9" y="834.4" width="4.5" height="5.4"/><rect x="178.9" y="856" width="4.5" height="5.4"/><rect x="187.9" y="866.8" width="4.5" height="5.4"/><rect x="178.9" y="888.4" width="4.5" height="5.4"/><rect x="262.2" y="713.7" width="4.5" height="5.4"/><rect x="271.2" y="713.7" width="4.5" height="5.4"/><rect x="334.2" y="713.7" width="4.5" height="5.4"/><rect x="253.2" y="724.5" width="4.5" height="5.4"/><rect x="226.2" y="746.1" width="4.5" height="5.4"/><rect x="235.2" y="746.1" width="4.5" height="5.4"/><rect x="262.2" y="746.1" width="4.5" height="5.4"/><rect x="316.2" y="746.1" width="4.5" height="5.4"/><rect x="325.2" y="746.1" width="4.5" height="5.4"/><rect x="253.2" y="756.9" width="4.5" height="5.4"/><rect x="226.2" y="767.7" width="4.5" height="5.4"/><rect x="244.2" y="767.7" width="4.5" height="5.4"/><rect x="280.2" y="767.7" width="4.5" height="5.4"/><rect x="307.2" y="767.7" width="4.5" height="5.4"/><rect x="307.2" y="778.5" width="4.5" height="5.4"/><rect x="325.2" y="778.5" width="4.5" height="5.4"/><rect x="226.2" y="789.3" width="4.5" height="5.4"/><rect x="280.2" y="789.3" width="4.5" height="5.4"/><rect x="334.2" y="789.3" width="4.5" height="5.4"/><rect x="235.2" y="800.1" width="4.5" height="5.4"/><rect x="262.2" y="800.1" width="4.5" height="5.4"/><rect x="280.2" y="800.1" width="4.5" height="5.4"/><rect x="298.2" y="800.1" width="4.5" height="5.4"/><rect x="307.2" y="800.1" width="4.5" height="5.4"/><rect x="334.2" y="800.1" width="4.5" height="5.4"/><rect x="226.2" y="810.9" width="4.5" height="5.4"/><rect x="244.2" y="810.9" width="4.5" height="5.4"/><rect x="262.2" y="810.9" width="4.5" height="5.4"/><rect x="271.2" y="810.9" width="4.5" height="5.4"/><rect x="289.2" y="810.9" width="4.5" height="5.4"/><rect x="298.2" y="810.9" width="4.5" height="5.4"/><rect x="307.2" y="810.9" width="4.5" height="5.4"/><rect x="334.2" y="810.9" width="4.5" height="5.4"/><rect x="244.2" y="821.7" width="4.5" height="5.4"/><rect x="262.2" y="821.7" width="4.5" height="5.4"/><rect x="307.2" y="821.7" width="4.5" height="5.4"/><rect x="226.2" y="832.5" width="4.5" height="5.4"/><rect x="235.2" y="832.5" width="4.5" height="5.4"/><rect x="262.2" y="832.5" width="4.5" height="5.4"/><rect x="298.2" y="832.5" width="4.5" height="5.4"/><rect x="226.2" y="843.3" width="4.5" height="5.4"/><rect x="298.2" y="843.3" width="4.5" height="5.4"/><rect x="262.2" y="854.1" width="4.5" height="5.4"/><rect x="298.2" y="854.1" width="4.5" height="5.4"/><rect x="316.2" y="854.1" width="4.5" height="5.4"/><rect x="235.2" y="864.9" width="4.5" height="5.4"/><rect x="307.2" y="864.9" width="4.5" height="5.4"/><rect x="325.2" y="864.9" width="4.5" height="5.4"/><rect x="226.2" y="875.7" width="4.5" height="5.4"/><rect x="244.2" y="875.7" width="4.5" height="5.4"/><rect x="307.2" y="875.7" width="4.5" height="5.4"/><rect x="325.2" y="875.7" width="4.5" height="5.4"/><rect x="316.2" y="886.5" width="4.5" height="5.4"/><rect x="325.2" y="886.5" width="4.5" height="5.4"/><rect x="334.2" y="886.5" width="4.5" height="5.4"/><rect x="355.7" y="431" width="4.5" height="5.4"/><rect x="400.7" y="431" width="4.5" height="5.4"/><rect x="427.7" y="431" width="4.5" height="5.4"/><rect x="355.7" y="441.8" width="4.5" height="5.4"/><rect x="418.7" y="441.8" width="4.5" height="5.4"/><rect x="436.7" y="441.8" width="4.5" height="5.4"/><rect x="364.7" y="452.6" width="4.5" height="5.4"/><rect x="382.7" y="452.6" width="4.5" height="5.4"/><rect x="427.7" y="452.6" width="4.5" height="5.4"/><rect x="454.7" y="452.6" width="4.5" height="5.4"/><rect x="355.7" y="463.4" width="4.5" height="5.4"/><rect x="355.7" y="474.2" width="4.5" height="5.4"/><rect x="445.7" y="474.2" width="4.5" height="5.4"/><rect x="454.7" y="474.2" width="4.5" height="5.4"/><rect x="346.7" y="485" width="4.5" height="5.4"/><rect x="364.7" y="485" width="4.5" height="5.4"/><rect x="373.7" y="485" width="4.5" height="5.4"/><rect x="373.7" y="495.8" width="4.5" height="5.4"/><rect x="409.7" y="495.8" width="4.5" height="5.4"/><rect x="445.7" y="506.6" width="4.5" height="5.4"/><rect x="346.7" y="517.4" width="4.5" height="5.4"/><rect x="409.7" y="517.4" width="4.5" height="5.4"/><rect x="454.7" y="517.4" width="4.5" height="5.4"/><rect x="346.7" y="528.2" width="4.5" height="5.4"/><rect x="409.7" y="528.2" width="4.5" height="5.4"/><rect x="418.7" y="528.2" width="4.5" height="5.4"/><rect x="364.7" y="539" width="4.5" height="5.4"/><rect x="346.7" y="549.8" width="4.5" height="5.4"/><rect x="364.7" y="549.8" width="4.5" height="5.4"/><rect x="409.7" y="549.8" width="4.5" height="5.4"/><rect x="391.7" y="560.6" width="4.5" height="5.4"/><rect x="400.7" y="560.6" width="4.5" height="5.4"/><rect x="409.7" y="560.6" width="4.5" height="5.4"/><rect x="427.7" y="560.6" width="4.5" height="5.4"/><rect x="436.7" y="560.6" width="4.5" height="5.4"/><rect x="373.7" y="571.4" width="4.5" height="5.4"/><rect x="436.7" y="571.4" width="4.5" height="5.4"/><rect x="454.7" y="571.4" width="4.5" height="5.4"/><rect x="382.7" y="582.2" width="4.5" height="5.4"/><rect x="391.7" y="582.2" width="4.5" height="5.4"/><rect x="418.7" y="582.2" width="4.5" height="5.4"/><rect x="427.7" y="582.2" width="4.5" height="5.4"/><rect x="436.7" y="582.2" width="4.5" height="5.4"/><rect x="445.7" y="582.2" width="4.5" height="5.4"/><rect x="346.7" y="593" width="4.5" height="5.4"/><rect x="355.7" y="593" width="4.5" height="5.4"/><rect x="391.7" y="593" width="4.5" height="5.4"/><rect x="400.7" y="593" width="4.5" height="5.4"/><rect x="409.7" y="593" width="4.5" height="5.4"/><rect x="445.7" y="593" width="4.5" height="5.4"/><rect x="427.7" y="603.8" width="4.5" height="5.4"/><rect x="454.7" y="603.8" width="4.5" height="5.4"/><rect x="400.7" y="614.6" width="4.5" height="5.4"/><rect x="409.7" y="614.6" width="4.5" height="5.4"/><rect x="445.7" y="614.6" width="4.5" height="5.4"/><rect x="427.7" y="625.4" width="4.5" height="5.4"/><rect x="382.7" y="636.2" width="4.5" height="5.4"/><rect x="427.7" y="636.2" width="4.5" height="5.4"/><rect x="436.7" y="636.2" width="4.5" height="5.4"/><rect x="355.7" y="647" width="4.5" height="5.4"/><rect x="373.7" y="657.8" width="4.5" height="5.4"/><rect x="391.7" y="657.8" width="4.5" height="5.4"/><rect x="445.7" y="657.8" width="4.5" height="5.4"/><rect x="346.7" y="668.6" width="4.5" height="5.4"/><rect x="418.7" y="668.6" width="4.5" height="5.4"/><rect x="427.7" y="668.6" width="4.5" height="5.4"/><rect x="346.7" y="690.2" width="4.5" height="5.4"/><rect x="373.7" y="690.2" width="4.5" height="5.4"/><rect x="400.7" y="690.2" width="4.5" height="5.4"/><rect x="409.7" y="690.2" width="4.5" height="5.4"/><rect x="427.7" y="690.2" width="4.5" height="5.4"/><rect x="400.7" y="701" width="4.5" height="5.4"/><rect x="418.7" y="701" width="4.5" height="5.4"/><rect x="391.7" y="711.8" width="4.5" height="5.4"/><rect x="445.7" y="711.8" width="4.5" height="5.4"/><rect x="355.7" y="733.4" width="4.5" height="5.4"/><rect x="382.7" y="733.4" width="4.5" height="5.4"/><rect x="418.7" y="733.4" width="4.5" height="5.4"/><rect x="436.7" y="733.4" width="4.5" height="5.4"/><rect x="436.7" y="744.2" width="4.5" height="5.4"/><rect x="445.7" y="744.2" width="4.5" height="5.4"/><rect x="346.7" y="755" width="4.5" height="5.4"/><rect x="382.7" y="755" width="4.5" height="5.4"/><rect x="445.7" y="755" width="4.5" height="5.4"/><rect x="373.7" y="765.8" width="4.5" height="5.4"/><rect x="400.7" y="765.8" width="4.5" height="5.4"/><rect x="409.7" y="765.8" width="4.5" height="5.4"/><rect x="382.7" y="776.6" width="4.5" height="5.4"/><rect x="400.7" y="776.6" width="4.5" height="5.4"/><rect x="436.7" y="776.6" width="4.5" height="5.4"/><rect x="346.7" y="787.4" width="4.5" height="5.4"/><rect x="373.7" y="787.4" width="4.5" height="5.4"/><rect x="400.7" y="787.4" width="4.5" height="5.4"/><rect x="346.7" y="798.2" width="4.5" height="5.4"/><rect x="364.7" y="798.2" width="4.5" height="5.4"/><rect x="409.7" y="798.2" width="4.5" height="5.4"/><rect x="454.7" y="798.2" width="4.5" height="5.4"/><rect x="355.7" y="809" width="4.5" height="5.4"/><rect x="391.7" y="809" width="4.5" height="5.4"/><rect x="418.7" y="830.6" width="4.5" height="5.4"/><rect x="454.7" y="830.6" width="4.5" height="5.4"/><rect x="346.7" y="841.4" width="4.5" height="5.4"/><rect x="364.7" y="841.4" width="4.5" height="5.4"/><rect x="418.7" y="841.4" width="4.5" height="5.4"/><rect x="427.7" y="841.4" width="4.5" height="5.4"/><rect x="436.7" y="841.4" width="4.5" height="5.4"/><rect x="445.7" y="841.4" width="4.5" height="5.4"/><rect x="364.7" y="852.2" width="4.5" height="5.4"/><rect x="382.7" y="852.2" width="4.5" height="5.4"/><rect x="436.7" y="852.2" width="4.5" height="5.4"/><rect x="445.7" y="852.2" width="4.5" height="5.4"/><rect x="355.7" y="863" width="4.5" height="5.4"/><rect x="382.7" y="863" width="4.5" height="5.4"/><rect x="391.7" y="863" width="4.5" height="5.4"/><rect x="409.7" y="863" width="4.5" height="5.4"/><rect x="436.7" y="863" width="4.5" height="5.4"/><rect x="355.7" y="873.8" width="4.5" height="5.4"/><rect x="391.7" y="873.8" width="4.5" height="5.4"/><rect x="382.7" y="884.6" width="4.5" height="5.4"/><rect x="409.7" y="884.6" width="4.5" height="5.4"/><rect x="454.7" y="884.6" width="4.5" height="5.4"/><rect x="366" y="518.4" width="70" height="13.5" fill="#ff2e88"/><rect x="483.4" y="709.7" width="4.5" height="5.4"/><rect x="501.4" y="709.7" width="4.5" height="5.4"/><rect x="528.4" y="709.7" width="4.5" height="5.4"/><rect x="546.4" y="709.7" width="4.5" height="5.4"/><rect x="483.4" y="720.5" width="4.5" height="5.4"/><rect x="492.4" y="720.5" width="4.5" height="5.4"/><rect x="501.4" y="720.5" width="4.5" height="5.4"/><rect x="537.4" y="720.5" width="4.5" height="5.4"/><rect x="564.4" y="720.5" width="4.5" height="5.4"/><rect x="573.4" y="720.5" width="4.5" height="5.4"/><rect x="609.4" y="720.5" width="4.5" height="5.4"/><rect x="492.4" y="731.3" width="4.5" height="5.4"/><rect x="537.4" y="731.3" width="4.5" height="5.4"/><rect x="564.4" y="731.3" width="4.5" height="5.4"/><rect x="609.4" y="731.3" width="4.5" height="5.4"/><rect x="492.4" y="742.1" width="4.5" height="5.4"/><rect x="546.4" y="742.1" width="4.5" height="5.4"/><rect x="573.4" y="742.1" width="4.5" height="5.4"/><rect x="465.4" y="752.9" width="4.5" height="5.4"/><rect x="555.4" y="752.9" width="4.5" height="5.4"/><rect x="573.4" y="752.9" width="4.5" height="5.4"/><rect x="474.4" y="763.7" width="4.5" height="5.4"/><rect x="519.4" y="763.7" width="4.5" height="5.4"/><rect x="465.4" y="774.5" width="4.5" height="5.4"/><rect x="519.4" y="774.5" width="4.5" height="5.4"/><rect x="555.4" y="774.5" width="4.5" height="5.4"/><rect x="510.4" y="785.3" width="4.5" height="5.4"/><rect x="519.4" y="785.3" width="4.5" height="5.4"/><rect x="546.4" y="785.3" width="4.5" height="5.4"/><rect x="591.4" y="785.3" width="4.5" height="5.4"/><rect x="474.4" y="796.1" width="4.5" height="5.4"/><rect x="483.4" y="796.1" width="4.5" height="5.4"/><rect x="501.4" y="796.1" width="4.5" height="5.4"/><rect x="519.4" y="796.1" width="4.5" height="5.4"/><rect x="528.4" y="796.1" width="4.5" height="5.4"/><rect x="537.4" y="796.1" width="4.5" height="5.4"/><rect x="564.4" y="796.1" width="4.5" height="5.4"/><rect x="582.4" y="796.1" width="4.5" height="5.4"/><rect x="492.4" y="806.9" width="4.5" height="5.4"/><rect x="546.4" y="806.9" width="4.5" height="5.4"/><rect x="600.4" y="806.9" width="4.5" height="5.4"/><rect x="492.4" y="817.7" width="4.5" height="5.4"/><rect x="528.4" y="817.7" width="4.5" height="5.4"/><rect x="564.4" y="817.7" width="4.5" height="5.4"/><rect x="573.4" y="817.7" width="4.5" height="5.4"/><rect x="492.4" y="828.5" width="4.5" height="5.4"/><rect x="501.4" y="828.5" width="4.5" height="5.4"/><rect x="528.4" y="828.5" width="4.5" height="5.4"/><rect x="546.4" y="828.5" width="4.5" height="5.4"/><rect x="564.4" y="839.3" width="4.5" height="5.4"/><rect x="582.4" y="839.3" width="4.5" height="5.4"/><rect x="537.4" y="850.1" width="4.5" height="5.4"/><rect x="573.4" y="850.1" width="4.5" height="5.4"/><rect x="483.4" y="871.7" width="4.5" height="5.4"/><rect x="492.4" y="871.7" width="4.5" height="5.4"/><rect x="537.4" y="871.7" width="4.5" height="5.4"/><rect x="600.4" y="871.7" width="4.5" height="5.4"/><rect x="609.4" y="871.7" width="4.5" height="5.4"/><rect x="519.4" y="882.5" width="4.5" height="5.4"/><rect x="528.4" y="882.5" width="4.5" height="5.4"/><rect x="582.4" y="882.5" width="4.5" height="5.4"/><rect x="609.4" y="882.5" width="4.5" height="5.4"/><rect x="483.4" y="893.3" width="4.5" height="5.4"/><rect x="492.4" y="893.3" width="4.5" height="5.4"/><rect x="582.4" y="893.3" width="4.5" height="5.4"/></g><g fill="#07060f"><rect x="-10" y="717.6" width="171.8" height="182.4"/><rect x="165.9" y="699.4" width="167.7" height="200.6"/><rect x="336.6" y="547.5" width="64.6" height="352.5"/><rect x="404.3" y="714.3" width="83.7" height="185.7"/><rect x="490.5" y="772.3" width="54.5" height="127.7"/><rect x="547.3" y="555" width="84.6" height="345"/></g><g fill="#ffd23f" opacity="0.9"><rect x="6" y="725.6" width="6" height="7.2"/><rect x="54" y="725.6" width="6" height="7.2"/><rect x="66" y="725.6" width="6" height="7.2"/><rect x="102" y="725.6" width="6" height="7.2"/><rect x="114" y="725.6" width="6" height="7.2"/><rect x="114" y="740" width="6" height="7.2"/><rect x="150" y="740" width="6" height="7.2"/><rect x="18" y="754.4" width="6" height="7.2"/><rect x="114" y="754.4" width="6" height="7.2"/><rect x="150" y="754.4" width="6" height="7.2"/><rect x="-6" y="768.8" width="6" height="7.2"/><rect x="30" y="768.8" width="6" height="7.2"/><rect x="54" y="768.8" width="6" height="7.2"/><rect x="78" y="768.8" width="6" height="7.2"/><rect x="126" y="768.8" width="6" height="7.2"/><rect x="138" y="768.8" width="6" height="7.2"/><rect x="6" y="783.2" width="6" height="7.2"/><rect x="42" y="783.2" width="6" height="7.2"/><rect x="78" y="783.2" width="6" height="7.2"/><rect x="126" y="783.2" width="6" height="7.2"/><rect x="42" y="797.6" width="6" height="7.2"/><rect x="78" y="797.6" width="6" height="7.2"/><rect x="102" y="797.6" width="6" height="7.2"/><rect x="30" y="812" width="6" height="7.2"/><rect x="42" y="812" width="6" height="7.2"/><rect x="78" y="812" width="6" height="7.2"/><rect x="-6" y="826.4" width="6" height="7.2"/><rect x="42" y="826.4" width="6" height="7.2"/><rect x="102" y="826.4" width="6" height="7.2"/><rect x="114" y="826.4" width="6" height="7.2"/><rect x="138" y="826.4" width="6" height="7.2"/><rect x="66" y="840.8" width="6" height="7.2"/><rect x="90" y="855.2" width="6" height="7.2"/><rect x="42" y="869.6" width="6" height="7.2"/><rect x="102" y="869.6" width="6" height="7.2"/><rect x="18" y="884" width="6" height="7.2"/><rect x="66" y="884" width="6" height="7.2"/><rect x="78" y="884" width="6" height="7.2"/><rect x="169.9" y="707.4" width="6" height="7.2"/><rect x="193.9" y="707.4" width="6" height="7.2"/><rect x="265.9" y="707.4" width="6" height="7.2"/><rect x="205.9" y="721.8" width="6" height="7.2"/><rect x="253.9" y="750.6" width="6" height="7.2"/><rect x="205.9" y="765" width="6" height="7.2"/><rect x="277.9" y="765" width="6" height="7.2"/><rect x="205.9" y="779.4" width="6" height="7.2"/><rect x="253.9" y="779.4" width="6" height="7.2"/><rect x="277.9" y="779.4" width="6" height="7.2"/><rect x="325.9" y="779.4" width="6" height="7.2"/><rect x="193.9" y="793.8" width="6" height="7.2"/><rect x="253.9" y="793.8" width="6" height="7.2"/><rect x="181.9" y="808.2" width="6" height="7.2"/><rect x="193.9" y="808.2" width="6" height="7.2"/><rect x="181.9" y="822.6" width="6" height="7.2"/><rect x="193.9" y="822.6" width="6" height="7.2"/><rect x="229.9" y="822.6" width="6" height="7.2"/><rect x="241.9" y="822.6" width="6" height="7.2"/><rect x="301.9" y="822.6" width="6" height="7.2"/><rect x="217.9" y="837" width="6" height="7.2"/><rect x="241.9" y="837" width="6" height="7.2"/><rect x="289.9" y="837" width="6" height="7.2"/><rect x="217.9" y="865.8" width="6" height="7.2"/><rect x="241.9" y="880.2" width="6" height="7.2"/><rect x="199.4" y="739.5" width="100.6" height="13.5" fill="#ff2e88"/><rect x="364.6" y="555.5" width="6" height="7.2"/><rect x="352.6" y="569.9" width="6" height="7.2"/><rect x="364.6" y="569.9" width="6" height="7.2"/><rect x="340.6" y="584.3" width="6" height="7.2"/><rect x="352.6" y="598.7" width="6" height="7.2"/><rect x="352.6" y="613.1" width="6" height="7.2"/><rect x="364.6" y="627.5" width="6" height="7.2"/><rect x="376.6" y="627.5" width="6" height="7.2"/><rect x="364.6" y="641.9" width="6" height="7.2"/><rect x="340.6" y="656.3" width="6" height="7.2"/><rect x="340.6" y="670.7" width="6" height="7.2"/><rect x="364.6" y="670.7" width="6" height="7.2"/><rect x="352.6" y="685.1" width="6" height="7.2"/><rect x="376.6" y="742.7" width="6" height="7.2"/><rect x="352.6" y="757.1" width="6" height="7.2"/><rect x="364.6" y="757.1" width="6" height="7.2"/><rect x="364.6" y="771.5" width="6" height="7.2"/><rect x="376.6" y="785.9" width="6" height="7.2"/><rect x="376.6" y="814.7" width="6" height="7.2"/><rect x="352.6" y="829.1" width="6" height="7.2"/><rect x="364.6" y="829.1" width="6" height="7.2"/><rect x="340.6" y="843.5" width="6" height="7.2"/><rect x="352.6" y="843.5" width="6" height="7.2"/><rect x="364.6" y="843.5" width="6" height="7.2"/><rect x="340.6" y="857.9" width="6" height="7.2"/><rect x="364.6" y="857.9" width="6" height="7.2"/><rect x="388.6" y="872.3" width="6" height="7.2"/><rect x="352.6" y="886.7" width="6" height="7.2"/><rect x="420.3" y="751.1" width="6" height="7.2"/><rect x="456.3" y="765.5" width="6" height="7.2"/><rect x="420.3" y="779.9" width="6" height="7.2"/><rect x="456.3" y="794.3" width="6" height="7.2"/><rect x="480.3" y="794.3" width="6" height="7.2"/><rect x="408.3" y="808.7" width="6" height="7.2"/><rect x="480.3" y="808.7" width="6" height="7.2"/><rect x="444.3" y="823.1" width="6" height="7.2"/><rect x="444.3" y="837.5" width="6" height="7.2"/><rect x="456.3" y="837.5" width="6" height="7.2"/><rect x="408.3" y="851.9" width="6" height="7.2"/><rect x="432.3" y="880.7" width="6" height="7.2"/><rect x="480.3" y="880.7" width="6" height="7.2"/><rect x="530.5" y="794.7" width="6" height="7.2"/><rect x="518.5" y="866.7" width="6" height="7.2"/><rect x="506.5" y="881.1" width="6" height="7.2"/><rect x="611.3" y="563" width="6" height="7.2"/><rect x="623.3" y="563" width="6" height="7.2"/><rect x="563.3" y="577.4" width="6" height="7.2"/><rect x="587.3" y="606.2" width="6" height="7.2"/><rect x="563.3" y="635" width="6" height="7.2"/><rect x="611.3" y="635" width="6" height="7.2"/><rect x="551.3" y="649.4" width="6" height="7.2"/><rect x="575.3" y="649.4" width="6" height="7.2"/><rect x="599.3" y="649.4" width="6" height="7.2"/><rect x="563.3" y="678.2" width="6" height="7.2"/><rect x="623.3" y="692.6" width="6" height="7.2"/><rect x="623.3" y="707" width="6" height="7.2"/><rect x="563.3" y="721.4" width="6" height="7.2"/><rect x="623.3" y="721.4" width="6" height="7.2"/><rect x="551.3" y="750.2" width="6" height="7.2"/><rect x="587.3" y="750.2" width="6" height="7.2"/><rect x="599.3" y="750.2" width="6" height="7.2"/><rect x="563.3" y="764.6" width="6" height="7.2"/><rect x="599.3" y="764.6" width="6" height="7.2"/><rect x="575.3" y="779" width="6" height="7.2"/><rect x="587.3" y="779" width="6" height="7.2"/><rect x="611.3" y="779" width="6" height="7.2"/><rect x="563.3" y="807.8" width="6" height="7.2"/><rect x="551.3" y="836.6" width="6" height="7.2"/><rect x="587.3" y="851" width="6" height="7.2"/><rect x="599.3" y="851" width="6" height="7.2"/><rect x="611.3" y="851" width="6" height="7.2"/><rect x="623.3" y="851" width="6" height="7.2"/><rect x="551.3" y="865.4" width="6" height="7.2"/><rect x="587.3" y="865.4" width="6" height="7.2"/><rect x="599.3" y="865.4" width="6" height="7.2"/><rect x="623.3" y="865.4" width="6" height="7.2"/><rect x="599.3" y="879.8" width="6" height="7.2"/></g><path d="M516.2 423.2l-4 36M240.3 295.8l-4 36M396.5 892.6l-4 36M176 276.5l-4 36M221.5 95.5l-4 36M526.4 833.9l-4 36M300.9 809l-4 36M168.4 747.8l-4 36M463.6 712l-4 36M159.5 58.4l-4 36M93.3 831.6l-4 36M539 674.4l-4 36M80.2 203.3l-4 36M396.4 107.8l-4 36M533.5 801.7l-4 36M253.4 720.3l-4 36M310.2 577.7l-4 36M326.6 722.8l-4 36M36.2 813.9l-4 36M206.7 402l-4 36M521.3 842.5l-4 36M132.3 234.4l-4 36M264.3 771.3l-4 36M86.3 127l-4 36M302.1 213.1l-4 36M297.3 473.5l-4 36M597 657.6l-4 36M103.8 120.3l-4 36M419.7 896.6l-4 36M497.4 189.5l-4 36M592 343.9l-4 36M198.8 45.2l-4 36M33.2 363.6l-4 36M155.3 783.4l-4 36M144.6 197.6l-4 36M546.7 509.3l-4 36M469.9 729.8l-4 36M184.4 510l-4 36M586 190.9l-4 36M177.3 748.3l-4 36M72.7 240.9l-4 36M366.9 396.4l-4 36M107.2 896.3l-4 36M579.8 721.6l-4 36M248.7 461.9l-4 36M454.8 297.7l-4 36M423.3 616.3l-4 36M296.3 546.8l-4 36M166.8 475l-4 36M581.5 522.3l-4 36M56.7 53.1l-4 36M41 499.1l-4 36M395.8 609.8l-4 36M303.5 344.2l-4 36M570.2 599.9l-4 36M342.8 111.8l-4 36M499 160.5l-4 36M84.7 744.7l-4 36M198.5 227l-4 36M3.6 41.4l-4 36M286.8 759.4l-4 36M322.2 475.9l-4 36M447.2 748l-4 36M271.5 580.4l-4 36M18 349.8l-4 36M270.6 395.1l-4 36M567.2 822.3l-4 36M217.9 504.2l-4 36M53.2 892.7l-4 36M465.7 124l-4 36M91.2 276.4l-4 36M436.6 204.2l-4 36M414.5 741.7l-4 36M439 869.7l-4 36M74.4 577.5l-4 36M429.9 91.7l-4 36M467.2 334.8l-4 36M92.6 536.3l-4 36M359.3 84l-4 36M219.9 209.6l-4 36M345.1 802.3l-4 36M268.7 507.7l-4 36M261.6 308.9l-4 36M41.2 612.5l-4 36M157.3 863.6l-4 36M221.1 32.9l-4 36M434.4 793l-4 36M459 316l-4 36M446.2 432.7l-4 36M590.9 503l-4 36" stroke="#fff" stroke-opacity=".12" stroke-width="1"/>
<rect width="600" height="900" fill="url(#vig)"/>
<rect width="600" height="900" filter="url(#grain)" opacity=".6"/>
</svg>