<svg xmlns="http://www.w3.org/2000/svg" viewBox="0 0 1280 720" width="1280" height="720" preserveAspectRatio="xMidYMid slice">
<defs>
<linearGradient id="sky" x1="0" y1="0" x2="0" y2="1"><stop offset="0" stop-color="#02030a"/><stop offset="1" stop-color="#0b1030"/></linearGradient>
<radialGradient id="glow"><stop offset="0" stop-color="#ffa45c" stop-opacity=".55"/><stop offset=".4" stop-color="#ffa45c" stop-opacity=".14"/><stop offset="1" stop-color="#ffa45c" stop-opacity="0"/></radialGradient>
<linearGradient id="fog" x1="0" y1="0" x2="0" y2="1"><stop offset="0" stop-color="#ffffff" stop-opacity="0"/><stop offset=".5" stop-color="#ffffff" stop-opacity=".35"/><stop offset="1" stop-color="#ffffff" stop-opacity="0"/></linearGradient>
<radialGradient id="vig" cx="50%" cy="50%" r="75%"><stop offset=".55" stop-color="#000" stop-opacity="0"/><stop offset="1" stop-color="#000" stop-opacity=".65"/></radialGradient>
<filter id="blur" x="-50%" y="-50%" width="200%" height="200%"><feGaussianBlur stdDeviation="28.8"/></filter>
<filter id="grain"><feTurbulence type="fractalNoise" baseFrequency=".9" numOctaves="2" seed="12"/><feColorMatrix values="0 0 0 0 .5 0 0 0 0 .5 0 0 0 0 .5 0 0 0 .09 0"/></filter>
</defs>
<rect width="1280" height="720" fill="url(#sky)"/>
<g fill="#fff"><circle cx="2.7" cy="588.4" r="0.9" opacity="0.6"/><circle cx="249.6" cy="351.2" r="1" opacity="0.5"/><circle cx="1096.4" cy="110" r="0.9" opacity="0.8"/><circle cx="125.4" cy="83.6" r="0.9" opacity="0.9"/><circle cx="922.3" cy="228.8" r="1.3" opacity="0.5"/><circle cx="121.8" cy="383.9" r="0.6" opacity="0.6"/><circle cx="207.8" cy="570.7" r="0.9" opacity="0.5"/><circle cx="1224.2" cy="237.5" r="1.4" opacity="0.7"/><circle cx="692" cy="295.6" r="0.4" opacity="0.7"/><circle cx="835.8" cy="473.3" r="0.7" opacity="1"/><circle cx="652" cy="518" r="0.4" opacity="0.4"/><circle cx="1037.9" cy="498.8" r="0.5" opacity="0.4"/><circle cx="1115.9" cy="541.7" r="1.4" opacity="0.9"/><circle cx="1145.2" cy="73.3" r="0.5" opacity="0.9"/><circle cx="922.7" cy="109.8" r="1" opacity="0.3"/><circle cx="598.6" cy="171.8" r="1.3" opacity="0.6"/><circle cx="1272.5" cy="94.7" r="1.3" opacity="0.8"/><circle cx="1231.7" cy="638.8" r="0.4" opacity="0.6"/><circle cx="357.3" cy="631.9" r="0.5" opacity="0.9"/><circle cx="566.1" cy="221.3" r="1.1" opacity="0.6"/><circle cx="57.1" cy="585.4" r="0.7" opacity="0.4"/><circle cx="315.2" cy="285.9" r="1.2" opacity="0.8"/><circle cx="232" cy="146.2" r="1.3" opacity="0.4"/><circle cx="1176.4" cy="101" r="0.2" opacity="0.4"/><circle cx="343.1" cy="222.6" r="0.5" opacity="0.4"/><circle cx="751.6" cy="200.6" r="0.6" opacity="0.8"/><circle cx="915.2" cy="346.8" r="0.5" opacity="0.9"/><circle cx="995.8" cy="311.4" r="0.7" opacity="0.3"/><circle cx="1263.4" cy="421.9" r="0.6" opacity="0.8"/><circle cx="47.7" cy="548.2" r="1" opacity="0.6"/><circle cx="1176.5" cy="47.2" r="0.8" opacity="0.7"/><circle cx="54.3" cy="449.7" r="0.4" opacity="0.5"/><circle cx="959.6" cy="228.5" r="0.3" opacity="0.7"/><circle cx="653.2" cy="707.7" r="0.6" opacity="0.4"/><circle cx="1021.9" cy="477" r="1.2" opacity="0.8"/><circle cx="376.2" cy="478.8" r="0.3" opacity="0.9"/><circle cx="454.2" cy="63.8" r="0.6" opacity="0.6"/><circle cx="1191.8" cy="538.8" r="0.8" opacity="0.8"/><circle cx="700" cy="619.8" r="1" opacity="0.2"/><circle cx="208.6" cy="337.6" r="1.2" opacity="0.6"/><circle cx="409.9" cy="719.9" r="1" opacity="0.3"/><circle cx="850.3" cy="64.5" r="1.2" opacity="0.3"/><circle cx="510.5" cy="12.2" r="0.3" opacity="0.7"/><circle cx="463" cy="642.9" r="1.2" opacity="0.4"/><circle cx="173.2" cy="249.9" r="1.1" opacity="0.6"/><circle cx="902.5" cy="397.7" r="1.1" opacity="0.9"/><circle cx="633.8" cy="657.2" r="1.4" opacity="0.2"/><circle cx="970.5" cy="71.8" r="0.2" opacity="0.5"/><circle cx="493.4" cy="463" r="0.9" opacity="0.4"/><circle cx="373.4" cy="714.3" r="0.3" opacity="0.8"/><circle cx="904.1" cy="414.9" r="0.7" opacity="0.9"/><circle cx="816.9" cy="427.2" r="1.3" opacity="0.9"/><circle cx="123.2" cy="494" r="1.1" opacity="0.3"/><circle cx="681.9" cy="261.3" r="1" opacity="0.5"/><circle cx="1273.7" cy="53.9" r="0.7" opacity="0.8"/><circle cx="247.1" cy="263.8" r="1.3" opacity="0.5"/><circle cx="298.7" cy="558.6" r="0.3" opacity="0.8"/><circle cx="1066.1" cy="168.8" r="0.2" opacity="0.5"/><circle cx="572" cy="29.6" r="0.7" opacity="0.4"/><circle cx="313.6" cy="333.1" r="0.8" opacity="0.9"/><circle cx="1160.7" cy="208.6" r="0.8" opacity="0.3"/><circle cx="595" cy="511.8" r="0.6" opacity="0.8"/><circle cx="260.6" cy="28.9" r="1.2" opacity="0.5"/><circle cx="1136.3" cy="520.5" r="1.1" opacity="0.5"/><circle cx="1123.2" cy="71.9" r="1.5" opacity="0.6"/><circle cx="520.8" cy="663.6" r="1.5" opacity="0.3"/><circle cx="477.3" cy="485.1" r="0.4" opacity="0.9"/><circle cx="89.3" cy="347" r="0.6" opacity="0.7"/><circle cx="475.2" cy="649.5" r="1" opacity="0.2"/><circle cx="1195.8" cy="686.2" r="0.9" opacity="0.5"/><circle cx="606.9" cy="712.5" r="1.2" opacity="0.4"/><circle cx="806" cy="108.4" r="0.9" opacity="0.4"/><circle cx="494.1" cy="20.1" r="0.3" opacity="0.5"/><circle cx="684.3" cy="43" r="1.2" opacity="0.6"/><circle cx="31.4" cy="501.8" r="1.1" opacity="0.8"/><circle cx="40.6" cy="380.9" r="0.7" opacity="0.4"/><circle cx="548.4" cy="285.4" r="0.6" opacity="0.8"/><circle cx="304.9" cy="1.9" r="1.2" opacity="0.8"/><circle cx="1028" cy="677.9" r="0.3" opacity="0.6"/><circle cx="467.1" cy="406" r="1.5" opacity="0.8"/><circle cx="837.9" cy="457.9" r="0.7" opacity="0.6"/><circle cx="159.3" cy="231.8" r="1.2" opacity="0.7"/><circle cx="822.9" cy="48.2" r="0.9" opacity="0.3"/><circle cx="198.4" cy="604.1" r="1" opacity="0.7"/><circle cx="266.7" cy="15.4" r="0.7" opacity="0.8"/><circle cx="206.6" cy="522.7" r="0.8" opacity="0.9"/><circle cx="1095.3" cy="452.5" r="1" opacity="0.5"/><circle cx="1203.2" cy="435.8" r="0.5" opacity="0.7"/><circle cx="825" cy="169.4" r="1.1" opacity="0.7"/><circle cx="1231.7" cy="174.4" r="1" opacity="0.3"/><circle cx="44.1" cy="551.9" r="1.5" opacity="0.5"/><circle cx="509.1" cy="53.8" r="0.7" opacity="0.3"/><circle cx="1144.5" cy="658.1" r="1.3" opacity="0.8"/><circle cx="1051.7" cy="13.5" r="0.5" opacity="0.6"/><circle cx="36.5" cy="471" r="0.9" opacity="0.7"/><circle cx="591.2" cy="647" r="0.8" opacity="1"/><circle cx="118.8" cy="665.6" r="1" opacity="0.4"/><circle cx="848.6" cy="603.5" r="1" opacity="0.4"/><circle cx="1138.9" cy="38.3" r="0.6" opacity="0.5"/><circle cx="1261.3" cy="275.3" r="0.4" opacity="0.6"/><circle cx="320" cy="568.6" r="0.3" opacity="0.5"/><circle cx="509.7" cy="497.4" r="0.2" opacity="0.4"/><circle cx="898.7" cy="449.4" r="1.1" opacity="0.7"/><circle cx="674.6" cy="198.9" r="1.5" opacity="0.6"/><circle cx="895.1" cy="570.4" r="1.2" opacity="0.9"/><circle cx="855.8" cy="153.1" r="0.6" opacity="0.4"/><circle cx="455.3" cy="573.1" r="0.7" opacity="0.5"/><circle cx="221" cy="448.3" r="1.4" opacity="0.2"/><circle cx="1148.8" cy="143.6" r="0.4" opacity="0.7"/><circle cx="972.3" cy="119.6" r="0.2" opacity="0.6"/><circle cx="403.5" cy="322" r="1.2" opacity="0.4"/><circle cx="276.5" cy="304.2" r="1.4" opacity="0.2"/><circle cx="242.6" cy="154.9" r="0.4" opacity="0.5"/><circle cx="89.1" cy="294.4" r="1.4" opacity="0.8"/><circle cx="83" cy="376.3" r="1.2" opacity="0.5"/><circle cx="776.1" cy="257.6" r="0.9" opacity="0.9"/><circle cx="121.9" cy="481.7" r="0.4" opacity="0.5"/><circle cx="611.1" cy="139.5" r="1.2" opacity="0.3"/><circle cx="83.7" cy="472.2" r="1" opacity="0.4"/><circle cx="985.4" cy="655" r="1.5" opacity="1"/><circle cx="1179.4" cy="60.7" r="0.5" opacity="0.3"/><circle cx="1120" cy="646.8" r="0.5" opacity="0.6"/><circle cx="385.7" cy="532" r="0.6" opacity="0.5"/><circle cx="999" cy="170.9" r="0.6" opacity="0.6"/><circle cx="15.9" cy="153.6" r="1.1" opacity="0.6"/><circle cx="137.3" cy="597.3" r="0.3" opacity="0.7"/><circle cx="503.4" cy="157.3" r="1.4" opacity="0.9"/><circle cx="642.2" cy="680.8" r="1.4" opacity="0.5"/><circle cx="280.7" cy="54.7" r="0.4" opacity="0.3"/><circle cx="317.1" cy="590.2" r="0.8" opacity="0.2"/><circle cx="1274.4" cy="3.3" r="1" opacity="0.7"/><circle cx="22" cy="691.9" r="0.6" opacity="0.8"/><circle cx="858.1" cy="269.1" r="0.9" opacity="0.5"/><circle cx="409.2" cy="1.4" r="1.1" opacity="0.5"/><circle cx="399.1" cy="57.3" r="0.6" opacity="1"/><circle cx="1262.2" cy="160" r="0.4" opacity="0.4"/><circle cx="1196.8" cy="20.1" r="0.6" opacity="0.8"/><circle cx="644.4" cy="14.1" r="1.2" opacity="0.7"/><circle cx="1151.1" cy="595.6" r="1.3" opacity="0.5"/><circle cx="1193.5" cy="361.9" r="1.3" opacity="0.7"/><circle cx="910.6" cy="611.3" r="0.4" opacity="0.6"/><circle cx="237.2" cy="687.3" r="0.5" opacity="0.4"/><circle cx="1133.1" cy="171.8" r="0.7" opacity="0.3"/><circle cx="786.7" cy="118.9" r="0.8" opacity="0.9"/><circle cx="1236.5" cy="109.4" r="1.1" opacity="0.3"/><circle cx="604.2" cy="402.2" r="1.1" opacity="0.4"/><circle cx="162.1" cy="55.2" r="1.2" opacity="0.5"/><circle cx="243.4" cy="308.8" r="1.4" opacity="0.4"/><circle cx="185.4" cy="495.6" r="1.3" opacity="0.5"/><circle cx="170.4" cy="250.7" r="1.2" opacity="0.3"/><circle cx="192.8" cy="113" r="1.4" opacity="0.6"/><circle cx="475.3" cy="437.4" r="0.7" opacity="0.8"/><circle cx="946.7" cy="704.4" r="1.4" opacity="0.4"/><circle cx="183.3" cy="408.7" r="0.7" opacity="0.5"/><circle cx="109.3" cy="40.4" r="1.1" opacity="0.3"/><circle cx="87" cy="189.1" r="1" opacity="0.4"/><circle cx="221.3" cy="28.7" r="0.5" opacity="0.9"/><circle cx="927.3" cy="18.2" r="0.5" opacity="0.9"/><circle cx="777.9" cy="532.8" r="1.1" opacity="0.3"/><circle cx="1245.9" cy="6.8" r="0.4" opacity="0.3"/><circle cx="496.2" cy="430.8" r="0.6" opacity="0.9"/><circle cx="46.4" cy="339.2" r="0.5" opacity="0.3"/><circle cx="891.4" cy="571.4" r="0.7" opacity="0.5"/><circle cx="927.4" cy="668" r="0.2" opacity="0.7"/><circle cx="1114.1" cy="413.2" r="1.1" opacity="0.8"/><circle cx="327.2" cy="334.3" r="0.2" opacity="0.4"/><circle cx="595.9" cy="704.1" r="0.5" opacity="0.5"/><circle cx="630.5" cy="376.1" r="1.2" opacity="0.5"/><circle cx="691.1" cy="293.5" r="0.7" opacity="0.7"/><circle cx="976.3" cy="600.3" r="0.9" opacity="1"/><circle cx="1178.1" cy="210.2" r="0.3" opacity="0.8"/><circle cx="519.5" cy="253.6" r="0.5" opacity="0.5"/><circle cx="1144.1" cy="20.2" r="0.8" opacity="0.9"/><circle cx="42.9" cy="193.7" r="0.6" opacity="0.9"/><circle cx="106.2" cy="549.9" r="1.4" opacity="0.7"/><circle cx="496.7" cy="32" r="0.4" opacity="0.2"/><circle cx="498.5" cy="384.7" r="1.2" opacity="1"/><circle cx="255.2" cy="14.8" r="1.5" opacity="0.9"/><circle cx="849.5" cy="71.6" r="0.7" opacity="0.9"/><circle cx="837" cy="421.3" r="1" opacity="0.7"/><circle cx="273.4" cy="192.6" r="1.4" opacity="0.4"/><circle cx="1189.8" cy="539.4" r="1" opacity="0.5"/><circle cx="546.4" cy="693.3" r="0.6" opacity="1"/><circle cx="218.3" cy="710.4" r="1.3" opacity="0.3"/><circle cx="64.5" cy="247.8" r="1.2" opacity="0.4"/><circle cx="883.2" cy="240.6" r="0.4" opacity="0.7"/><circle cx="868.5" cy="474.7" r="0.4" opacity="0.9"/><circle cx="856.8" cy="287" r="1.3" opacity="0.5"/><circle cx="1213.1" cy="527.5" r="1.2" opacity="1"/><circle cx="660.9" cy="404.6" r="1.5" opacity="0.9"/><circle cx="777.6" cy="333.8" r="0.4" opacity="0.9"/><circle cx="774.6" cy="702.6" r="0.6" opacity="0.9"/><circle cx="467.6" cy="622.7" r="0.4" opacity="0.4"/><circle cx="831.9" cy="271" r="0.4" opacity="1"/><circle cx="1247" cy="679.4" r="0.4" opacity="0.3"/><circle cx="941.8" cy="613.2" r="0.3" opacity="0.5"/><circle cx="138.4" cy="181.4" r="1.4" opacity="0.4"/><circle cx="423.3" cy="480.2" r="0.2" opacity="0.4"/><circle cx="273.6" cy="129.7" r="0.9" opacity="0.4"/><circle cx="806.3" cy="414.4" r="0.7" opacity="0.7"/><circle cx="278.8" cy="614.3" r="0.6" opacity="0.7"/><circle cx="471.3" cy="65.9" r="0.9" opacity="0.3"/><circle cx="768.5" cy="114.1" r="0.2" opacity="0.4"/><circle cx="1073.9" cy="390.3" r="1.3" opacity="0.8"/><circle cx="347.3" cy="411.7" r="0.8" opacity="0.2"/><circle cx="1151.4" cy="381.9" r="0.9" opacity="0.6"/><circle cx="9.4" cy="470" r="0.3" opacity="1"/><circle cx="873.5" cy="482.4" r="1.2" opacity="1"/><circle cx="638.9" cy="474.2" r="1.2" opacity="0.7"/><circle cx="523.1" cy="674.6" r="1" opacity="0.8"/><circle cx="928.2" cy="690.9" r="1.3" opacity="0.8"/><circle cx="590.5" cy="690.7" r="1.2" opacity="0.8"/><circle cx="1020.3" cy="605.8" r="1" opacity="0.8"/><circle cx="151.1" cy="333.2" r="0.5" opacity="0.3"/><circle cx="522.2" cy="667.6" r="0.6" opacity="0.6"/><circle cx="1235.2" cy="356.2" r="0.8" opacity="0.6"/><circle cx="108.9" cy="355.3" r="0.6" opacity="0.4"/><circle cx="1187.5" cy="135.5" r="0.7" opacity="0.2"/><circle cx="863.9" cy="629.9" r="0.8" opacity="0.8"/><circle cx="102.2" cy="645.5" r="1.5" opacity="0.6"/><circle cx="133.2" cy="516.5" r="0.6" opacity="0.3"/><circle cx="952.9" cy="250" r="1.1" opacity="0.6"/><circle cx="904.2" cy="257.1" r="0.8" opacity="0.8"/><circle cx="211.4" cy="229.9" r="0.6" opacity="0.5"/><circle cx="701.3" cy="599" r="0.6" opacity="0.5"/><circle cx="1252.8" cy="477.4" r="1" opacity="0.5"/><circle cx="411.4" cy="384" r="1.4" opacity="0.7"/><circle cx="963.8" cy="20.3" r="0.3" opacity="0.9"/><circle cx="904.2" cy="313.6" r="0.6" opacity="0.7"/><circle cx="667.3" cy="713.9" r="0.2" opacity="0.3"/><circle cx="286.2" cy="535" r="0.9" opacity="0.3"/><circle cx="402.6" cy="292.4" r="1.4" opacity="0.2"/><circle cx="1184.5" cy="221.5" r="0.5" opacity="0.7"/><circle cx="1264" cy="219.2" r="0.4" opacity="1"/><circle cx="812.3" cy="72.5" r="1.5" opacity="0.6"/><circle cx="191.1" cy="691.3" r="1.3" opacity="0.5"/><circle cx="649.5" cy="41.1" r="1" opacity="0.9"/><circle cx="364.7" cy="470.6" r="1.2" opacity="0.6"/><circle cx="968.5" cy="0.2" r="0.8" opacity="0.6"/><circle cx="1028.7" cy="283.8" r="1.3" opacity="0.9"/><circle cx="688.1" cy="698.7" r="1.1" opacity="0.4"/><circle cx="738.4" cy="214.7" r="0.5" opacity="0.9"/><circle cx="1091" cy="322" r="0.9" opacity="0.7"/><circle cx="1130.6" cy="359.1" r="1.1" opacity="0.3"/><circle cx="568" cy="245.2" r="1" opacity="1"/><circle cx="549.9" cy="647.3" r="0.2" opacity="0.3"/><circle cx="253.9" cy="519.8" r="0.2" opacity="0.5"/><circle cx="1142" cy="701.8" r="0.6" opacity="0.6"/><circle cx="1255.4" cy="131.3" r="0.5" opacity="0.4"/><circle cx="914.7" cy="336.8" r="1.3" opacity="0.3"/><circle cx="1150.5" cy="544.4" r="1" opacity="0.9"/><circle cx="67.7" cy="524" r="0.2" opacity="0.8"/><circle cx="452.4" cy="174.3" r="0.4" opacity="0.5"/><circle cx="870.7" cy="161.8" r="0.6" opacity="0.5"/><circle cx="369.3" cy="418.5" r="1.3" opacity="0.5"/><circle cx="1216.9" cy="231" r="0.6" opacity="0.9"/><circle cx="450.2" cy="707.3" r="1.3" opacity="0.7"/><circle cx="1069.5" cy="653.4" r="1.1" opacity="0.3"/><circle cx="301.8" cy="127.8" r="0.8" opacity="0.9"/><circle cx="1018.9" cy="191.6" r="0.2" opacity="1"/></g><circle cx="7.4" cy="187.1" r="318" fill="#ffa45c" opacity=".13" filter="url(#blur)"/><circle cx="741.6" cy="348.9" r="353.1" fill="#6fb7ff" opacity=".13" filter="url(#blur)"/><circle cx="1188.3" cy="616.1" r="297.1" fill="#ffa45c" opacity=".13" filter="url(#blur)"/><circle cx="1056.2" cy="34.4" r="233.4" fill="#6fb7ff" opacity=".13" filter="url(#blur)"/><circle cx="1264.5" cy="501.1" r="318.3" fill="#ffa45c" opacity=".13" filter="url(#blur)"/><defs><radialGradient id="pl" cx="35%" cy="30%"><stop offset="0" stop-color="#ffa45c"/><stop offset=".55" stop-color="#6d4b42"/><stop offset="1" stop-color="#020309"/></radialGradient></defs><ellipse cx="974.5" cy="352.2" rx="452.2" ry="83.3" fill="none" stroke="#6fb7ff" stroke-opacity=".5" stroke-width="19" transform="rotate(-14 974.5 352.2)"/><circle cx="974.5" cy="352.2" r="238" fill="url(#pl)"/><path d="M522.3 352.2a452.2 83.3 0 0 0 904.5 0" fill="none" stroke="#6fb7ff" stroke-opacity=".7" stroke-width="19" transform="rotate(-14 974.5 352.2)"/><g transform="translate(225.9 352.2) rotate(-20) scale(1.8)"><path d="M0 0l46 8-46 8 8-8z" fill="#020309" stroke="#ffa45c" stroke-width="1.5"/><path d="M0 4l-40 4 40 4z" fill="#6fb7ff" opacity=".8"/></g><path d="M0 720 L0 676.8 L0 692 L10 696.9 L20 697.9 L30 699.4 L40 698.6 L50 697 L60 699.6 L70 698.8 L80 698.2 L90 695.3 L100 697.1 L110 695.4 L120 696.1 L130 697.1 L140 699 L150 703.2 L160 703 L170 704.4 L180 705.7 L190 709.9 L200 707.6 L210 709.2 L220 706.4 L230 705.5 L240 705.3 L250 701.3 L260 696.8 L270 694 L280 693.9 L290 690.3 L300 687.7 L310 687.7 L320 686.6 L330 685.1 L340 683.7 L350 686.2 L360 684.8 L370 685.7 L380 682.3 L390 684.2 L400 682.6 L410 679.3 L420 674.6 L430 670.8 L440 668.9 L450 665.2 L460 663.3 L470 661.8 L480 661.2 L490 659.6 L500 657.3 L510 659.1 L520 658.5 L530 663 L540 665.2 L550 663.4 L560 667.6 L570 666 L580 667.5 L590 667.9 L600 667 L610 667.6 L620 664.8 L630 664.9 L640 663.5 L650 663 L660 660.7 L670 663 L680 663.1 L690 664.5 L700 668 L710 666.4 L720 670.7 L730 671.7 L740 672.8 L750 674.2 L760 675.5 L770 674.5 L780 673.4 L790 671 L800 668.9 L810 669.3 L820 665.4 L830 662.5 L840 658.8 L850 657.3 L860 656 L870 658.2 L880 657 L890 656.7 L900 656.4 L910 656.8 L920 657.1 L930 657.5 L940 658.8 L950 657.5 L960 657.9 L970 654.2 L980 652.1 L990 651.3 L1000 649.1 L1010 647.9 L1020 644.3 L1030 643.1 L1040 644.1 L1050 645.5 L1060 645.8 L1070 648 L1080 648.5 L1090 653 L1100 657.1 L1110 657.2 L1120 661.8 L1130 664.8 L1140 662.7 L1150 664 L1160 666.4 L1170 665 L1180 664.7 L1190 666.5 L1200 666.7 L1210 666.3 L1220 668.1 L1230 668.9 L1240 670.7 L1250 676.8 L1260 678.8 L1270 680 L1280 685.7 L1290 687.3 L1280 720 Z" fill="#020309"/><rect width="1280" height="36" fill="#000" opacity=".6"/><text x="24" y="24" font-family="Segoe UI,Arial,sans-serif" font-size="16" font-weight="600" fill="#ffa45c" text-anchor="start">◆ 1,240</text><text x="154" y="24" font-family="Segoe UI,Arial,sans-serif" font-size="16" font-weight="600" fill="#e8e8e8" text-anchor="start">▲ 386</text><text x="284" y="24" font-family="Segoe UI,Arial,sans-serif" font-size="16" font-weight="600" fill="#e8e8e8" text-anchor="start">● 72</text><text x="414" y="24" font-family="Segoe UI,Arial,sans-serif" font-size="16" font-weight="600" fill="#e8e8e8" text-anchor="start">☗ 14/20</text><rect y="610" width="1280" height="110" fill="#000" opacity=".55"/><rect x="24" y="628" width="72" height="72" fill="#302637" stroke="#fff" stroke-opacity=".25"/><rect x="110" y="628" width="72" height="72" fill="#48353b" stroke="#fff" stroke-opacity=".25"/><rect x="196" y="628" width="72" height="72" fill="#60443f" stroke="#fff" stroke-opacity=".25"/><rect x="282" y="628" width="72" height="72" fill="#302637" stroke="#fff" stroke-opacity=".25"/><rect x="368" y="628" width="72" height="72" fill="#48353b" stroke="#fff" stroke-opacity=".25"/><rect x="454" y="628" width="72" height="72" fill="#60443f" stroke="#fff" stroke-opacity=".25"/><text x="1256" y="670" font-family="Segoe UI,Arial,sans-serif" font-size="20" font-weight="600" fill="#ffa45c" text-anchor="end">DAY 34 · AUTUMN</text>
<rect width="1280" height="720" fill="url(#vig)"/>
<rect width="1280" height="720" filter="url(#grain)" opacity=".6"/>
</svg>