<svg xmlns="http://www.w3.org/2000/svg" viewBox="0 0 600 900" width="600" height="900" preserveAspectRatio="xMidYMid slice">
<defs>
<linearGradient id="sky" x1="0" y1="0" x2="0" y2="1"><stop offset="0" stop-color="#0a0420"/><stop offset="1" stop-color="#3b0a45"/></linearGradient>
<radialGradient id="glow"><stop offset="0" stop-color="#ff3fa4" stop-opacity=".55"/><stop offset=".4" stop-color="#ff3fa4" stop-opacity=".14"/><stop offset="1" stop-color="#ff3fa4" stop-opacity="0"/></radialGradient>
<linearGradient id="fog" x1="0" y1="0" x2="0" y2="1"><stop offset="0" stop-color="#ff4fd8" stop-opacity="0"/><stop offset=".5" stop-color="#ff4fd8" stop-opacity=".35"/><stop offset="1" stop-color="#ff4fd8" stop-opacity="0"/></linearGradient>
<radialGradient id="vig" cx="50%" cy="50%" r="75%"><stop offset=".55" stop-color="#000" stop-opacity="0"/><stop offset="1" stop-color="#000" stop-opacity=".65"/></radialGradient>
<filter id="blur" x="-50%" y="-50%" width="200%" height="200%"><feGaussianBlur stdDeviation="36"/></filter>
<filter id="grain"><feTurbulence type="fractalNoise" baseFrequency=".9" numOctaves="2" seed="10"/><feColorMatrix values="0 0 0 0 .5 0 0 0 0 .5 0 0 0 0 .5 0 0 0 .09 0"/></filter>
</defs>
<rect width="600" height="900" fill="url(#sky)"/>
<g fill="#fff"><circle cx="484.5" cy="469.8" r="1" opacity="1"/><circle cx="168.5" cy="56.8" r="0.3" opacity="0.9"/><circle cx="347.7" cy="247" r="1.5" opacity="0.8"/><circle cx="434.3" cy="292.1" r="1.4" opacity="0.5"/><circle cx="281.7" cy="141.5" r="0.4" opacity="0.2"/><circle cx="32.8" cy="99.9" r="0.5" opacity="0.6"/><circle cx="401.4" cy="465.7" r="1" opacity="0.6"/><circle cx="136.2" cy="179.1" r="1.4" opacity="0.3"/><circle cx="134.3" cy="38.2" r="1.3" opacity="0.9"/><circle cx="446.2" cy="270.3" r="1.3" opacity="0.5"/><circle cx="128.7" cy="159.2" r="1.4" opacity="0.2"/><circle cx="435.5" cy="535" r="0.6" opacity="0.5"/><circle cx="276.5" cy="0.4" r="0.5" opacity="0.7"/><circle cx="400.1" cy="30.4" r="1" opacity="0.7"/><circle cx="447.2" cy="191.2" r="1.5" opacity="0.5"/><circle cx="503.2" cy="208.7" r="0.5" opacity="0.4"/><circle cx="98.1" cy="80.9" r="0.9" opacity="0.6"/><circle cx="477.8" cy="347.2" r="0.7" opacity="0.9"/><circle cx="203.2" cy="413.2" r="0.3" opacity="0.9"/><circle cx="166.1" cy="487.2" r="0.4" opacity="0.8"/><circle cx="597.1" cy="497.3" r="1.3" opacity="0.6"/><circle cx="508.6" cy="398.4" r="0.4" opacity="0.5"/><circle cx="25.5" cy="241.2" r="1.3" opacity="0.5"/><circle cx="571.1" cy="242.7" r="1.2" opacity="0.7"/><circle cx="78.4" cy="7.3" r="1.2" opacity="0.7"/><circle cx="495.1" cy="522.4" r="0.5" opacity="0.2"/><circle cx="472.3" cy="60.3" r="1.1" opacity="0.5"/><circle cx="248.5" cy="148.3" r="1.2" opacity="0.3"/><circle cx="237.3" cy="331" r="1.3" opacity="0.9"/><circle cx="474.3" cy="374.1" r="1.1" opacity="0.9"/><circle cx="62.2" cy="260.3" r="0.5" opacity="0.5"/><circle cx="342.4" cy="135.7" r="0.8" opacity="0.4"/><circle cx="239.4" cy="252.4" r="1.1" opacity="1"/><circle cx="51.8" cy="437" r="0.9" opacity="0.4"/><circle cx="95.7" cy="515.1" r="0.8" opacity="0.8"/><circle cx="28.7" cy="500.4" r="0.7" opacity="0.4"/><circle cx="587.5" cy="62.2" r="1.1" opacity="0.4"/><circle cx="551.6" cy="397.4" r="0.7" opacity="0.9"/><circle cx="196.6" cy="412.8" r="0.8" opacity="0.7"/><circle cx="421.2" cy="417.1" r="1" opacity="0.9"/><circle cx="427.6" cy="27" r="1.1" opacity="1"/><circle cx="16.9" cy="26.4" r="1.4" opacity="0.4"/><circle cx="572.7" cy="231" r="1.2" opacity="0.7"/><circle cx="77.3" cy="25.2" r="1" opacity="0.7"/><circle cx="80.8" cy="67.4" r="1.1" opacity="0.9"/><circle cx="421" cy="77.7" r="1.1" opacity="0.4"/><circle cx="528.4" cy="196.8" r="0.4" opacity="1"/><circle cx="273.6" cy="77.7" r="0.3" opacity="0.5"/><circle cx="260.7" cy="449.2" r="1.2" opacity="0.4"/><circle cx="75.7" cy="68.5" r="1" opacity="0.7"/><circle cx="25.3" cy="493.4" r="1.1" opacity="0.6"/><circle cx="16.1" cy="36.1" r="0.5" opacity="1"/><circle cx="504.7" cy="335.3" r="0.3" opacity="0.7"/><circle cx="584.6" cy="152.8" r="1.3" opacity="0.4"/><circle cx="499" cy="69.9" r="1.3" opacity="0.2"/><circle cx="358.9" cy="89.1" r="0.7" opacity="0.2"/><circle cx="329.8" cy="434.8" r="0.5" opacity="0.8"/><circle cx="76.4" cy="330.2" r="1.4" opacity="1"/><circle cx="191.8" cy="101" r="0.2" opacity="0.7"/><circle cx="117.6" cy="151.2" r="1" opacity="0.2"/><circle cx="540.9" cy="74.5" r="1.1" opacity="0.5"/><circle cx="188.5" cy="10.9" r="1.4" opacity="0.6"/><circle cx="168.9" cy="352.8" r="0.4" opacity="0.3"/><circle cx="42.7" cy="183.9" r="0.4" opacity="0.8"/><circle cx="255.7" cy="470.1" r="0.6" opacity="0.5"/><circle cx="204.2" cy="385.7" r="1" opacity="0.3"/><circle cx="467" cy="188.1" r="0.4" opacity="0.4"/><circle cx="228.1" cy="41.9" r="0.2" opacity="0.2"/><circle cx="323.9" cy="108.1" r="0.2" opacity="0.8"/><circle cx="147.4" cy="194.4" r="0.5" opacity="1"/><circle cx="488" cy="420.3" r="0.4" opacity="0.9"/><circle cx="446.5" cy="384.2" r="1.5" opacity="0.3"/><circle cx="91.7" cy="249.1" r="0.6" opacity="0.3"/><circle cx="557.3" cy="194.3" r="1.2" opacity="0.7"/><circle cx="361.1" cy="315.7" r="0.8" opacity="0.6"/><circle cx="452.7" cy="152.5" r="1.4" opacity="0.3"/><circle cx="562.4" cy="184.2" r="1.4" opacity="0.5"/><circle cx="29.6" cy="196" r="0.9" opacity="0.7"/><circle cx="251.3" cy="218.1" r="1.3" opacity="0.2"/><circle cx="235.4" cy="458.3" r="0.9" opacity="0.9"/></g><circle cx="300" cy="432" r="540" fill="url(#glow)"/><defs><linearGradient id="sun" x1="0" y1="0" x2="0" y2="1"><stop offset="0" stop-color="#ff3fa4"/><stop offset="1" stop-color="#23e6ff"/></linearGradient></defs><circle cx="300" cy="450" r="216" fill="url(#sun)"/><rect x="84" y="450" width="432" height="2" fill="#3b0a45"/><rect x="84" y="484.6" width="432" height="3.6" fill="#3b0a45"/><rect x="84" y="519.1" width="432" height="5.2" fill="#3b0a45"/><rect x="84" y="553.7" width="432" height="6.8" fill="#3b0a45"/><rect x="84" y="588.2" width="432" height="8.4" fill="#3b0a45"/><rect x="84" y="622.8" width="432" height="10" fill="#3b0a45"/><path d="M0 900 L0 540 L0 471.2 L30 514.9 L60 537.5 L90 546.9 L120 582.5 L150 589.1 L180 583.5 L210 589.4 L240 576.8 L270 552.6 L300 593.2 L330 590.8 L360 578.4 L390 613 L420 597.2 L450 563.4 L480 528.7 L510 498.8 L540 485.9 L570 513.4 L600 499.2 L630 516.6 L600 900 Z" fill="#1a0630" stroke="#23e6ff" stroke-opacity=".6" stroke-width="1.5"/><rect y="540" width="600" height="360" fill="#07020f"/><path d="M84 540L-1860 900M91.2 540L-1788 900M98.4 540L-1716 900M105.6 540L-1644 900M112.8 540L-1572 900M120 540L-1500 900M127.2 540L-1428 900M134.4 540L-1356 900M141.6 540L-1284 900M148.8 540L-1212 900M156 540L-1140 900M163.2 540L-1068 900M170.4 540L-996 900M177.6 540L-924 900M184.8 540L-852 900M192 540L-780 900M199.2 540L-708 900M206.4 540L-636 900M213.6 540L-564 900M220.8 540L-492 900M228 540L-420 900M235.2 540L-348 900M242.4 540L-276 900M249.6 540L-204 900M256.8 540L-132 900M264 540L-60 900M271.2 540L12 900M278.4 540L84 900M285.6 540L156 900M292.8 540L228 900M300 540L300 900M307.2 540L372 900M314.4 540L444 900M321.6 540L516 900M328.8 540L588 900M336 540L660 900M343.2 540L732 900M350.4 540L804 900M357.6 540L876 900M364.8 540L948 900M372 540L1020 900M379.2 540L1092 900M386.4 540L1164 900M393.6 540L1236 900M400.8 540L1308 900M408 540L1380 900M415.2 540L1452 900M422.4 540L1524 900M429.6 540L1596 900M436.8 540L1668 900M444 540L1740 900M451.2 540L1812 900M458.4 540L1884 900M465.6 540L1956 900M472.8 540L2028 900M480 540L2100 900M487.2 540L2172 900M494.4 540L2244 900M501.6 540L2316 900M508.8 540L2388 900M516 540L2460 900M0 541.8H600M0 547.3H600M0 556.5H600M0 569.4H600M0 585.9H600M0 606.1H600M0 630H600M0 657.6H600M0 688.8H600M0 723.7H600M0 762.2H600M0 804.5H600M0 850.4H600" stroke="#23e6ff" stroke-opacity=".55" stroke-width="1.2"/><rect y="538" width="600" height="90" fill="url(#fog)"/>
<rect width="600" height="900" fill="url(#vig)"/>
<rect width="600" height="900" filter="url(#grain)" opacity=".6"/>
</svg>